HIERARCHY
ROOT Hips
{
	OFFSET 0.00000 0.00000 0.00000
	CHANNELS 6 Xposition Yposition Zposition Zrotation Yrotation Xrotation 
	JOINT LHipJoint
	{
		OFFSET 0 0 0
		CHANNELS 3 Zrotation Yrotation Xrotation
		JOINT LeftUpLeg
		{
			OFFSET 2.36090 -1.39315 1.24752
			CHANNELS 3 Zrotation Yrotation Xrotation
			JOINT LeftLeg
			{
				OFFSET 2.06810 -5.68207 0.00000
				CHANNELS 3 Zrotation Yrotation Xrotation
				JOINT LeftFoot
				{
					OFFSET 2.46631 -6.77613 0.00000
					CHANNELS 3 Zrotation Yrotation Xrotation
					JOINT LeftToeBase
					{
						OFFSET 0.26031 -0.71520 1.99545
						CHANNELS 3 Zrotation Yrotation Xrotation
						End Site
						{
							OFFSET 0.00000 -0.00000 1.05957
						}
					}
				}
			}
		}
	}
	JOINT RHipJoint
	{
		OFFSET 0 0 0
		CHANNELS 3 Zrotation Yrotation Xrotation
		JOINT RightUpLeg
		{
			OFFSET -2.25243 -1.39315 1.24752
			CHANNELS 3 Zrotation Yrotation Xrotation
			JOINT RightLeg
			{
				OFFSET -2.17343 -5.97145 0.00000
				CHANNELS 3 Zrotation Yrotation Xrotation
				JOINT RightFoot
				{
					OFFSET -2.52372 -6.93386 0.00000
					CHANNELS 3 Zrotation Yrotation Xrotation
					JOINT RightToeBase
					{
						OFFSET -0.22538 -0.61923 2.11447
						CHANNELS 3 Zrotation Yrotation Xrotation
						End Site
						{
							OFFSET -0.00000 -0.00000 1.10506
						}
					}
				}
			}
		}
	}
	JOINT LowerBack
	{
		OFFSET 0 0 0
		CHANNELS 3 Zrotation Yrotation Xrotation
		JOINT Spine
		{
			OFFSET 0.01594 2.13103 0.08007
			CHANNELS 3 Zrotation Yrotation Xrotation
			JOINT Spine1
			{
				OFFSET 0.01393 2.09723 0.18338
				CHANNELS 3 Zrotation Yrotation Xrotation
				JOINT Neck
				{
					OFFSET 0 0 0
					CHANNELS 3 Zrotation Yrotation Xrotation
					JOINT Neck1
					{
						OFFSET 0.05351 1.38915 0.32494
						CHANNELS 3 Zrotation Yrotation Xrotation
						JOINT Head
						{
							OFFSET 0.00711 1.45992 -0.21666
							CHANNELS 3 Zrotation Yrotation Xrotation
							End Site
							{
								OFFSET -0.00433 1.47702 -0.11056
							}
						}
					}
				}
				JOINT LeftShoulder
				{
					OFFSET 0 0 0
					CHANNELS 3 Zrotation Yrotation Xrotation
					JOINT LeftArm
					{
						OFFSET 2.87198 0.92249 0.11132
						CHANNELS 3 Zrotation Yrotation Xrotation
						JOINT LeftForeArm
						{
							OFFSET 5.52731 -0.00000 0.00000
							CHANNELS 3 Zrotation Yrotation Xrotation
							JOINT LeftHand
							{
								OFFSET 3.11059 -0.00000 0.00000
								CHANNELS 3 Zrotation Yrotation Xrotation
								JOINT LeftFingerBase
								{
									OFFSET 0 0 0
									CHANNELS 3 Zrotation Yrotation Xrotation
									JOINT LeftHandIndex1
									{
										OFFSET 0.41963 -0.00000 0.00000
										CHANNELS 3 Zrotation Yrotation Xrotation
										End Site
										{
											OFFSET 0.33831 -0.00000 0.00000
										}
									}
								}
								JOINT LThumb
								{
									OFFSET 0 0 0
									CHANNELS 3 Zrotation Yrotation Xrotation
									End Site
									{
										OFFSET 0.34348 -0.00000 0.34348
									}
								}
							}
						}
					}
				}
				JOINT RightShoulder
				{
					OFFSET 0 0 0
					CHANNELS 3 Zrotation Yrotation Xrotation
					JOINT RightArm
					{
						OFFSET -2.94710 0.68072 0.32187
						CHANNELS 3 Zrotation Yrotation Xrotation
						JOINT RightForeArm
						{
							OFFSET -5.25396 -0.00000 -0.00000
							CHANNELS 3 Zrotation Yrotation Xrotation
							JOINT RightHand
							{
								OFFSET -3.10567 -0.00000 0.00000
								CHANNELS 3 Zrotation Yrotation Xrotation
								JOINT RightFingerBase
								{
									OFFSET 0 0 0
									CHANNELS 3 Zrotation Yrotation Xrotation
									JOINT RightHandIndex1
									{
										OFFSET -0.49868 -0.00000 0.00000
										CHANNELS 3 Zrotation Yrotation Xrotation
										End Site
										{
											OFFSET -0.40204 -0.00000 0.00000
										}
									}
								}
								JOINT RThumb
								{
									OFFSET 0 0 0
									CHANNELS 3 Zrotation Yrotation Xrotation
									End Site
									{
										OFFSET -0.40818 -0.00000 0.40818
									}
								}
							}
						}
					}
				}
			}
		}
	}
}
MOTION
Frames: 8
Frame Time: 0.0227273
0.00 0.00 0.00 0 0 0 0 0 0 -21 0 0 0 0 0 0 0 0 0 0 0 0 0 0 21 0 0 0 0 0 0 0 0 0 0 0 0 0 0 0 0 0 0 0 0 0 0 -16 0 0 21 0 0 11 0 0 0 -8 0 0 0 0 0 0 0 0 0 0 0 0 0 0 0 0 0 0 0 0 8 0 0 0 0 0 0 0 0 0 0 0 0 0 0 0 0 0
0.00 0.00 0.00 121.3210 -1.4914 -70.2591 0.0000 0.0000 0.0000 -35.6681 -0.5078 -63.0747 13.1859 18.8483 69.7019 0.4963 8.0819 12.9375 1.7776 -8.3866 -23.8948 0.0000 0.0000 0.0000 17.6334 33.5018 -68.0493 -35.0045 -13.3787 139.1968 -1.8686 -7.2515 -29.2762 -3.6832 -11.7264 34.7708 -1.5831 0.9500 -4.5568 -5.2605 0.4263 -10.2940 -4.6692 -0.2060 -8.2762 28.3377 10.8681 -14.0742 -22.5886 14.3725 22.4847 -11.5330 6.8001 14.0619 0.0000 0.0000 0.0000 -102.4935 -38.9227 71.1684 149.3030 -41.4834 -108.1314 -0.0000 0.0000 -14.4384 32.9719 -11.3581 -7.2805 -7.1250 0.0000 -0.0000 4.0445 16.5363 -2.7330 0.0000 0.0000 0.0000 -124.7634 41.1073 176.9757 -152.4947 38.6568 -110.1869 0.0000 -0.0000 -37.7090 8.8666 -11.2169 -1.7381 7.1250 -0.0000 -0.0000 30.5856 -39.2079 4.9181
0.00 0.00 0.00 113.2180 -3.2017 -70.8161 0.0000 0.0000 0.0000 -21.7474 -13.4187 -68.3321 19.4346 19.9923 88.3465 0.4895 -2.0901 14.1421 0.0069 0.5362 1.4733 0.0000 0.0000 0.0000 20.6458 37.5143 -67.2559 -34.9578 -13.4312 138.9952 -2.4992 -7.1994 -33.0787 -5.2385 -13.6475 41.8433 5.2923 0.8948 -2.1930 -8.1000 0.4373 -8.9813 -11.8821 -0.8049 -8.2772 30.0612 9.5167 -15.2165 -20.0830 10.7740 23.9458 -11.4963 5.5130 13.5987 0.0000 0.0000 0.0000 -99.8444 -45.4332 80.1333 139.2936 -48.4829 -101.0336 -0.0000 0.0000 -24.4640 39.4680 -17.6222 -13.9971 -7.1250 0.0000 -0.0000 7.3681 7.7659 -6.3591 0.0000 0.0000 0.0000 -111.6453 45.8961 -172.6449 -155.0821 36.1199 -111.7586 0.0000 -0.0000 -42.8081 7.1417 -8.7857 -1.0964 7.1250 -0.0000 -0.0000 28.3509 -37.2173 6.0355
0.00 0.00 0.00 108.1210 -3.3259 -73.1705 0.0000 0.0000 0.0000 -17.4036 -18.8732 -72.6151 24.9377 19.4051 104.5758 0.5070 2.0869 12.8933 0.0622 1.6097 4.4282 0.0000 0.0000 0.0000 22.2781 38.1680 -64.7257 -34.6322 -13.7864 137.6115 -2.6880 -6.7901 -33.9216 -6.1638 -14.5852 45.6354 8.1097 1.6367 -0.2307 -8.8786 1.6409 -8.9214 -14.7097 -0.5052 -9.0761 27.1486 8.3742 -12.8901 -17.9587 10.2307 29.2435 -10.6102 5.4993 14.8452 -0.0000 -0.0000 0.0000 -98.6049 -47.1412 83.4648 125.6886 -54.5930 -90.3460 -0.0000 0.0000 -33.9180 46.0557 -22.4373 -21.6037 -7.1250 0.0000 -0.0000 10.2859 -0.3410 -10.5175 -0.0000 -0.0000 0.0000 -107.9112 51.8522 -166.1625 -155.3601 35.8337 -111.9218 0.0000 -0.0000 -39.2826 -0.8770 -11.8771 0.1805 7.1250 -0.0000 -0.0000 22.9999 -40.6968 2.5979
0.00 0.00 0.00 106.6640 -5.2141 -80.4866 0.0000 0.0000 0.0000 -19.3100 -13.9380 -62.0971 24.8696 19.4217 104.3708 0.7732 5.1032 15.6777 0.0071 0.5445 1.4963 0.0000 0.0000 0.0000 30.4483 34.6576 -52.9248 -33.7024 -14.7107 133.8351 -3.0477 -5.5568 -35.2630 -6.6146 -14.9986 47.4011 11.9349 6.7439 -0.1729 -9.6706 8.9605 -8.4050 -17.8978 3.3385 -5.6230 22.7542 8.8652 -14.1447 -9.6024 9.2440 36.1052 -6.4861 5.7521 17.3956 -0.0000 -0.0000 0.0000 -62.1919 -40.3859 66.7037 128.6918 -53.5097 -92.7776 -0.0000 0.0000 -47.2070 27.6498 -3.3088 -1.7320 -7.1250 0.0000 -0.0000 0.7879 26.2454 -0.3583 -0.0000 -0.0000 0.0000 -78.2763 60.7953 -140.2741 -149.7592 41.0989 -108.4324 0.0000 -0.0000 -44.5133 -13.6388 -22.0194 5.1980 7.1250 -0.0000 -0.0000 15.4680 -51.9159 -2.6872
0.00 0.00 0.00 103.0370 -6.5917 -82.4488 0.0000 0.0000 0.0000 -18.6473 -14.4633 -60.7589 25.7047 19.2012 106.8957 0.8296 10.8784 16.8552 0.2659 3.3172 9.1631 0.0000 0.0000 0.0000 33.6937 33.6439 -48.2714 -32.7590 -15.5315 130.2201 -3.3953 -4.2674 -36.5023 -7.2283 -15.5212 49.7326 12.7944 7.3901 -0.2854 -9.4470 10.0472 -5.1605 -17.6398 4.6324 -1.4680 26.9506 11.4119 -18.0533 -10.0090 10.9910 33.2482 -6.6499 6.7730 17.7026 0.0000 0.0000 0.0000 -40.7828 9.2499 55.8628 124.2706 -55.0602 -89.1869 -0.0000 0.0000 -35.1553 13.4360 -4.6735 -1.1151 -7.1250 0.0000 -0.0000 -9.9031 25.1672 4.8202 0.0000 0.0000 0.0000 -51.1738 65.1204 -110.7817 -148.0500 42.5073 -107.2930 0.0000 -0.0000 -61.3509 -32.0471 -28.0540 16.4053 7.1250 -0.0000 -0.0000 -1.9827 -62.1278 0.8260
0.00 0.00 0.00 102.5920 -6.7410 -81.7935 0.0000 0.0000 0.0000 -18.4267 -14.9495 -61.6425 26.1578 19.0655 108.2781 0.8485 10.8727 17.0182 0.2362 3.1280 8.6353 0.0000 0.0000 0.0000 33.4790 34.2583 -49.1486 -32.7571 -15.5330 130.2130 -3.4162 -4.5224 -36.7143 -7.3271 -15.6012 50.1007 14.4029 7.1179 0.1445 -13.2019 9.7245 -6.9330 -23.3253 4.1275 -2.5696 40.8440 12.4170 -15.7255 -12.5896 9.3435 32.9427 -9.6631 7.3148 17.5961 0.0000 0.0000 0.0000 -32.4636 16.4558 55.3166 121.0659 -56.0192 -86.5443 -0.0000 0.0000 -35.9837 11.6676 -4.2647 -0.8798 -7.1250 0.0000 -0.0000 -11.2516 25.6050 5.3827 0.0000 0.0000 0.0000 -14.5758 68.6694 -85.4704 -151.2886 39.7630 -109.4244 0.0000 -0.0000 -68.8791 -34.2307 -26.5127 16.8946 7.1250 -0.0000 -0.0000 -5.1585 -61.0122 2.0154
0.00 0.00 0.00 102.1050 -6.8171 -81.3929 0.0000 0.0000 0.0000 -18.7151 -15.2356 -61.6584 26.5654 18.9335 109.5299 0.9005 9.3523 17.1858 0.1181 2.2153 6.1011 0.0000 0.0000 0.0000 33.2806 34.6030 -49.4475 -32.6478 -15.6214 129.8059 -3.4600 -4.5096 -36.9298 -7.4312 -15.6845 50.4868 14.1047 7.3819 -0.0209 -12.4792 10.0290 -7.5373 -22.1541 4.1647 -3.1612 40.0191 11.5030 -13.9274 -12.5721 9.1391 32.6953 -9.6536 7.1819 16.9577 0.0000 0.0000 0.0000 -35.6885 23.5683 54.6971 114.7167 -57.5609 -81.2300 -0.0000 0.0000 -35.2564 10.1365 -4.7260 -0.8439 -7.1250 0.0000 -0.0000 -12.3476 25.1631 6.0602 0.0000 0.0000 0.0000 7.6084 74.6363 -54.9678 -147.2554 43.1328 -106.7529 0.0000 -0.0000 -62.4342 -37.1117 -26.0482 18.3791 7.1250 -0.0000 -0.0000 -8.9119 -61.2658 3.5460
